<svg width="173" height="173" viewBox="0 0 173 173" fill="none" xmlns="http://www.w3.org/2000/svg">
<g filter="url(#filter0_d_24_10)">
<rect x="13" y="30" width="147" height="113" rx="12" stroke="white" stroke-width="4" shape-rendering="crispEdges"/>
</g>
<g filter="url(#filter1_d_24_10)">
<mask id="path-2-outside-1_24_10" maskUnits="userSpaceOnUse" x="60" y="48" width="56" height="78" fill="black">
<rect fill="white" x="60" y="48" width="56" height="78"/>
<path d="M64.4545 122V52.1818H88.0455C93.5227 52.1818 98 53.1705 101.477 55.1477C104.977 57.1023 107.568 59.75 109.25 63.0909C110.932 66.4318 111.773 70.1591 111.773 74.2727C111.773 78.3864 110.932 82.125 109.25 85.4886C107.591 88.8523 105.023 91.5341 101.545 93.5341C98.0682 95.5114 93.6136 96.5 88.1818 96.5H71.2727V89H87.9091C91.6591 89 94.6705 88.3523 96.9432 87.0568C99.2159 85.7614 100.864 84.0114 101.886 81.8068C102.932 79.5795 103.455 77.0682 103.455 74.2727C103.455 71.4773 102.932 68.9773 101.886 66.7727C100.864 64.5682 99.2045 62.8409 96.9091 61.5909C94.6136 60.3182 91.5682 59.6818 87.7727 59.6818H72.9091V122H64.4545Z"/>
</mask>
<path d="M64.4545 122H60.4545V126H64.4545V122ZM64.4545 52.1818V48.1818H60.4545V52.1818H64.4545ZM101.477 55.1477L99.5001 58.6249L99.5135 58.6325L99.527 58.6401L101.477 55.1477ZM109.25 63.0909L105.677 64.8895V64.8895L109.25 63.0909ZM109.25 85.4886L105.672 83.6998L105.667 83.7095L105.663 83.7192L109.25 85.4886ZM101.545 93.5341L103.523 97.0112L103.531 97.0064L103.54 97.0015L101.545 93.5341ZM71.2727 96.5H67.2727V100.5H71.2727V96.5ZM71.2727 89V85H67.2727V89H71.2727ZM96.9432 87.0568L94.9624 83.5817V83.5817L96.9432 87.0568ZM101.886 81.8068L98.2654 80.1072L98.2616 80.1153L98.2578 80.1235L101.886 81.8068ZM101.886 66.7727L98.2578 68.4561L98.2649 68.4714L98.2722 68.4867L101.886 66.7727ZM96.9091 61.5909L94.9695 65.0892L94.9828 65.0965L94.9961 65.1038L96.9091 61.5909ZM72.9091 59.6818V55.6818H68.9091V59.6818H72.9091ZM72.9091 122V126H76.9091V122H72.9091ZM64.4545 122H68.4545V52.1818H64.4545H60.4545V122H64.4545ZM64.4545 52.1818V56.1818H88.0455V52.1818V48.1818H64.4545V52.1818ZM88.0455 52.1818V56.1818C93.0744 56.1818 96.8075 57.0938 99.5001 58.6249L101.477 55.1477L103.454 51.6706C99.1925 49.2471 93.9711 48.1818 88.0455 48.1818V52.1818ZM101.477 55.1477L99.527 58.6401C102.382 60.2342 104.381 62.3146 105.677 64.8895L109.25 63.0909L112.823 61.2923C110.755 57.1854 107.573 53.9703 103.428 51.6554L101.477 55.1477ZM109.25 63.0909L105.677 64.8895C107.051 67.6185 107.773 70.7204 107.773 74.2727H111.773H115.773C115.773 69.5978 114.813 65.2451 112.823 61.2923L109.25 63.0909ZM111.773 74.2727H107.773C107.773 77.8247 107.051 80.9423 105.672 83.6998L109.25 85.4886L112.828 87.2775C114.813 83.3077 115.773 78.9481 115.773 74.2727H111.773ZM109.25 85.4886L105.663 83.7192C104.379 86.3212 102.391 88.4333 99.5511 90.0667L101.545 93.5341L103.54 97.0015C107.654 94.6349 110.803 91.3834 112.837 87.2581L109.25 85.4886ZM101.545 93.5341L99.5682 90.0569C96.8713 91.5905 93.1584 92.5 88.1818 92.5V96.5V100.5C94.0688 100.5 99.265 99.4323 103.523 97.0112L101.545 93.5341ZM88.1818 96.5V92.5H71.2727V96.5V100.5H88.1818V96.5ZM71.2727 96.5H75.2727V89H71.2727H67.2727V96.5H71.2727ZM71.2727 89V93H87.9091V89V85H71.2727V89ZM87.9091 89V93C92.0704 93 95.8419 92.2887 98.924 90.5319L96.9432 87.0568L94.9624 83.5817C93.499 84.4158 91.2477 85 87.9091 85V89ZM96.9432 87.0568L98.924 90.5319C101.861 88.8581 104.115 86.5073 105.515 83.4902L101.886 81.8068L98.2578 80.1235C97.612 81.5155 96.5713 82.6646 94.9624 83.5817L96.9432 87.0568ZM101.886 81.8068L105.507 83.5064C106.834 80.6793 107.455 77.5755 107.455 74.2727H103.455H99.4545C99.4545 76.5608 99.0293 78.4798 98.2654 80.1072L101.886 81.8068ZM103.455 74.2727H107.455C107.455 70.9708 106.835 67.8719 105.501 65.0588L101.886 66.7727L98.2722 68.4867C99.029 70.0826 99.4545 71.9837 99.4545 74.2727H103.455ZM101.886 66.7727L105.515 65.0894C104.103 62.0467 101.81 59.7053 98.8221 58.078L96.9091 61.5909L94.9961 65.1038C96.5987 65.9765 97.6239 67.0896 98.2578 68.4561L101.886 66.7727ZM96.9091 61.5909L98.8487 58.0926C95.7534 56.3764 91.9636 55.6818 87.7727 55.6818V59.6818V63.6818C91.1728 63.6818 93.4739 64.2599 94.9695 65.0892L96.9091 61.5909ZM87.7727 59.6818V55.6818H72.9091V59.6818V63.6818H87.7727V59.6818ZM72.9091 59.6818H68.9091V122H72.9091H76.9091V59.6818H72.9091ZM72.9091 122V118H64.4545V122V126H72.9091V122Z" fill="white" mask="url(#path-2-outside-1_24_10)"/>
</g>
<defs>
<filter id="filter0_d_24_10" x="7" y="28" width="159" height="125" filterUnits="userSpaceOnUse" color-interpolation-filters="sRGB">
<feFlood flood-opacity="0" result="BackgroundImageFix"/>
<feColorMatrix in="SourceAlpha" type="matrix" values="0 0 0 0 0 0 0 0 0 0 0 0 0 0 0 0 0 0 127 0" result="hardAlpha"/>
<feOffset dy="4"/>
<feGaussianBlur stdDeviation="2"/>
<feComposite in2="hardAlpha" operator="out"/>
<feColorMatrix type="matrix" values="0 0 0 0 0 0 0 0 0 0 0 0 0 0 0 0 0 0 0.25 0"/>
<feBlend mode="normal" in2="BackgroundImageFix" result="effect1_dropShadow_24_10"/>
<feBlend mode="normal" in="SourceGraphic" in2="effect1_dropShadow_24_10" result="shape"/>
</filter>
<filter id="filter1_d_24_10" x="56.4545" y="48.1818" width="63.3182" height="85.8182" filterUnits="userSpaceOnUse" color-interpolation-filters="sRGB">
<feFlood flood-opacity="0" result="BackgroundImageFix"/>
<feColorMatrix in="SourceAlpha" type="matrix" values="0 0 0 0 0 0 0 0 0 0 0 0 0 0 0 0 0 0 127 0" result="hardAlpha"/>
<feOffset dy="4"/>
<feGaussianBlur stdDeviation="2"/>
<feComposite in2="hardAlpha" operator="out"/>
<feColorMatrix type="matrix" values="0 0 0 0 0 0 0 0 0 0 0 0 0 0 0 0 0 0 0.25 0"/>
<feBlend mode="normal" in2="BackgroundImageFix" result="effect1_dropShadow_24_10"/>
<feBlend mode="normal" in="SourceGraphic" in2="effect1_dropShadow_24_10" result="shape"/>
</filter>
</defs>
</svg>
